<?xml version="1.0" encoding="UTF-8" standalone="no"?>
<svg
   xmlns:dc="http://purl.org/dc/elements/1.1/"
   xmlns:cc="http://creativecommons.org/ns#"
   xmlns:rdf="http://www.w3.org/1999/02/22-rdf-syntax-ns#"
   xmlns:svg="http://www.w3.org/2000/svg"
   xmlns="http://www.w3.org/2000/svg"
   id="svg4"
   version="1.1"
   viewBox="0 0 14 14"
   height="14"
   width="14">
  <metadata
     id="metadata10">
    <rdf:RDF>
      <cc:Work
         rdf:about="">
        <dc:format>image/svg+xml</dc:format>
        <dc:type
           rdf:resource="http://purl.org/dc/dcmitype/StillImage" />
        <dc:title></dc:title>
      </cc:Work>
    </rdf:RDF>
  </metadata>
  <defs
     id="defs8" />
  <path
     d="M 7.2157876,5.561396 H 6.7842123 V 6.7944851 H 5.4894868 v 0.4110298 h 1.2947255 v 1.233089 H 7.2157876 V 7.2055149 H 8.5105132 V 6.7944851 H 7.2157876 Z M 10.86,6 C 10.41,4.28 8.86,3 7,3 5.14,3 3.59,4.28 3.14,6 H 0 v 2 h 3.14 c 0.45,1.72 2,3 3.86,3 1.86,0 3.41,-1.28 3.86,-3 H 14 V 6 Z M 7,9.2 C 5.78,9.2 4.8,8.22 4.8,7 4.8,5.78 5.78,4.8 7,4.8 8.22,4.8 9.2,5.78 9.2,7 9.2,8.22 8.22,9.2 7,9.2 Z"
     style="fill-rule:evenodd;stroke-width:0.42117718"
     id="path1034" />
</svg>
