<?xml version="1.0" encoding="UTF-8" standalone="no"?>
<svg
   xmlns:dc="http://purl.org/dc/elements/1.1/"
   xmlns:cc="http://creativecommons.org/ns#"
   xmlns:rdf="http://www.w3.org/1999/02/22-rdf-syntax-ns#"
   xmlns:svg="http://www.w3.org/2000/svg"
   xmlns="http://www.w3.org/2000/svg"
   xmlns:sodipodi="http://sodipodi.sourceforge.net/DTD/sodipodi-0.dtd"
   xmlns:inkscape="http://www.inkscape.org/namespaces/inkscape"
   height="512"
   width="512"
   id="svg4"
   version="1.1"
   viewBox="0 0 512 512"
   sodipodi:docname="plus-square.svg"
   inkscape:version="0.92.2 2405546, 2018-03-11">
  <sodipodi:namedview
     pagecolor="#ffffff"
     bordercolor="#666666"
     borderopacity="1"
     objecttolerance="10"
     gridtolerance="10"
     guidetolerance="10"
     inkscape:pageopacity="0"
     inkscape:pageshadow="2"
     inkscape:window-width="1280"
     inkscape:window-height="762"
     id="namedview877"
     showgrid="false"
     inkscape:zoom="0.4609375"
     inkscape:cx="184.40678"
     inkscape:cy="256"
     inkscape:window-x="0"
     inkscape:window-y="18"
     inkscape:window-maximized="0"
     inkscape:current-layer="svg4" />
  <metadata
     id="metadata10">
    <rdf:RDF>
      <cc:Work
         rdf:about="">
        <dc:format>image/svg+xml</dc:format>
        <dc:type
           rdf:resource="http://purl.org/dc/dcmitype/StillImage" />
        <dc:title />
      </cc:Work>
    </rdf:RDF>
  </metadata>
  <defs
     id="defs8" />
  <path
     inkscape:connector-curvature="0"
     style="fill:none;fill-opacity:1;stroke:#000000;stroke-width:33.33333588;stroke-miterlimit:4;stroke-dasharray:none;stroke-opacity:1"
     id="path819"
     d="M 439.33333,22.666669 H 72.66667 c -27.604168,0 -50.000001,22.395832 -50.000001,50 V 439.33334 c 0,27.60416 22.395833,49.99999 50.000001,49.99999 h 366.66666 c 27.60418,0 50,-22.39583 50,-49.99999 V 72.666669 c 0,-27.604168 -22.39582,-50 -50,-50 z" />
  <path
     inkscape:connector-curvature="0"
     id="path2"
     d="m 386,281.27778 c 0,5.95833 -4.875,10.83333 -10.83333,10.83333 h -83.05556 v 83.05556 c 0,5.95833 -4.875,10.83333 -10.83333,10.83333 h -50.55556 c -5.95833,0 -10.83333,-4.875 -10.83333,-10.83333 V 292.11111 H 136.83333 C 130.875,292.11111 126,287.23611 126,281.27778 v -50.55556 c 0,-5.95833 4.875,-10.83333 10.83333,-10.83333 h 83.05556 v -83.05556 c 0,-5.95833 4.875,-10.83333 10.83333,-10.83333 h 50.55556 c 5.95833,0 10.83333,4.875 10.83333,10.83333 v 83.05556 h 83.05556 c 5.95833,0 10.83333,4.875 10.83333,10.83333 z"
     style="stroke-width:0.90277779" />
</svg>
