<?xml version="1.0" encoding="UTF-8" standalone="no"?>
<svg
   xmlns:dc="http://purl.org/dc/elements/1.1/"
   xmlns:cc="http://creativecommons.org/ns#"
   xmlns:rdf="http://www.w3.org/1999/02/22-rdf-syntax-ns#"
   xmlns:svg="http://www.w3.org/2000/svg"
   xmlns="http://www.w3.org/2000/svg"
   xmlns:sodipodi="http://sodipodi.sourceforge.net/DTD/sodipodi-0.dtd"
   xmlns:inkscape="http://www.inkscape.org/namespaces/inkscape"
   id="svg4"
   version="1.1"
   viewBox="0 0 512 512"
   sodipodi:docname="plus-circle.svg"
   inkscape:version="0.92.2 2405546, 2018-03-11">
  <sodipodi:namedview
     pagecolor="#ffffff"
     bordercolor="#666666"
     borderopacity="1"
     objecttolerance="10"
     gridtolerance="10"
     guidetolerance="10"
     inkscape:pageopacity="0"
     inkscape:pageshadow="2"
     inkscape:window-width="1280"
     inkscape:window-height="762"
     id="namedview8"
     showgrid="false"
     inkscape:zoom="0.4609375"
     inkscape:cx="-48.813559"
     inkscape:cy="256"
     inkscape:window-x="0"
     inkscape:window-y="18"
     inkscape:window-maximized="0"
     inkscape:current-layer="svg4" />
  <metadata
     id="metadata10">
    <rdf:RDF>
      <cc:Work
         rdf:about="">
        <dc:format>image/svg+xml</dc:format>
        <dc:type
           rdf:resource="http://purl.org/dc/dcmitype/StillImage" />
        <dc:title />
      </cc:Work>
    </rdf:RDF>
  </metadata>
  <defs
     id="defs8" />
  <path
     inkscape:connector-curvature="0"
     style="fill:none;stroke:#000000;stroke-width:30.30303001;stroke-miterlimit:4;stroke-dasharray:none;stroke-opacity:1"
     id="path819"
     d="M 256,21.151514 C 126.26516,21.151514 21.151512,126.26516 21.151512,256 21.151512,385.73486 126.26516,490.84849 256,490.84849 385.73484,490.84849 490.84849,385.73486 490.84849,256 490.84849,126.26516 385.73484,21.151514 256,21.151514 Z" />
  <path
     inkscape:connector-curvature="0"
     id="path2"
     d="m 386,281.27778 c 0,5.95833 -4.875,10.83333 -10.83333,10.83333 h -83.05556 v 83.05556 c 0,5.95833 -4.875,10.83333 -10.83333,10.83333 h -50.55556 c -5.95833,0 -10.83333,-4.875 -10.83333,-10.83333 V 292.11111 H 136.83333 C 130.875,292.11111 126,287.23611 126,281.27778 v -50.55556 c 0,-5.95833 4.875,-10.83333 10.83333,-10.83333 h 83.05556 v -83.05556 c 0,-5.95833 4.875,-10.83333 10.83333,-10.83333 h 50.55556 c 5.95833,0 10.83333,4.875 10.83333,10.83333 v 83.05556 h 83.05556 c 5.95833,0 10.83333,4.875 10.83333,10.83333 z"
     style="stroke-width:0.90277779" />
</svg>
